{
	"asset":{
		"generator":"Khronos glTF Blender I/O v3.6.27",
		"version":"2.0"
	},
	"scene":0,
	"scenes":[
		{
			"name":"Scene",
			"nodes":[
				0
			]
		}
	],
	"nodes":[
		{
			"mesh":0,
			"name":"Cubo"
		}
	],
	"materials":[
		{
			"doubleSided":true,
			"name":"MiNuevoMaterial",
			"pbrMetallicRoughness":{
				"baseColorFactor":[
					0.004281771834939718,
					0.22048935294151306,
					0.08644820749759674,
					1
				],
				"metallicFactor":0.4021739065647125,
				"roughnessFactor":0.5
			}
		}
	],
	"meshes":[
		{
			"name":"Cubo",
			"primitives":[
				{
					"attributes":{
						"POSITION":0,
						"NORMAL":1,
						"TEXCOORD_0":2
					},
					"indices":3,
					"material":0
				}
			]
		}
	],
	"accessors":[
		{
			"bufferView":0,
			"componentType":5126,
			"count":6324,
			"max":[
				0.11363635957241058,
				0.19999998807907104,
				0.11098484694957733
			],
			"min":[
				-0.08636363595724106,
				0,
				-0.08901514858007431
			],
			"type":"VEC3"
		},
		{
			"bufferView":1,
			"componentType":5126,
			"count":6324,
			"type":"VEC3"
		},
		{
			"bufferView":2,
			"componentType":5126,
			"count":6324,
			"type":"VEC2"
		},
		{
			"bufferView":3,
			"componentType":5123,
			"count":35820,
			"type":"SCALAR"
		}
	],
	"bufferViews":[
		{
			"buffer":0,
			"byteLength":75888,
			"byteOffset":0,
			"target":34962
		},
		{
			"buffer":0,
			"byteLength":75888,
			"byteOffset":75888,
			"target":34962
		},
		{
			"buffer":0,
			"byteLength":50592,
			"byteOffset":151776,
			"target":34962
		},
		{
			"buffer":0,
			"byteLength":71640,
			"byteOffset":202368,
			"target":34963
		}
	],
	"buffers":[
		{
			"byteLength":274008,
			"uri":"data:application/octet-stream;base64,"
		}
	]
}
